<svg xmlns="http://www.w3.org/2000/svg" width="1200" height="760" viewBox="0 0 1200 760" role="img" aria-label="Abstract killzone tactical map">
  <defs>
    <linearGradient id="bg" x1="0" y1="0" x2="1" y2="1">
      <stop offset="0" stop-color="#28312c"/>
      <stop offset="0.52" stop-color="#151b18"/>
      <stop offset="1" stop-color="#332b21"/>
    </linearGradient>
    <pattern id="grid" width="80" height="80" patternUnits="userSpaceOnUse">
      <path d="M80 0H0V80" fill="none" stroke="#7ec4b3" stroke-opacity="0.12" stroke-width="2"/>
    </pattern>
    <filter id="soft" x="-20%" y="-20%" width="140%" height="140%">
      <feGaussianBlur stdDeviation="10"/>
    </filter>
  </defs>
  <rect width="1200" height="760" fill="url(#bg)"/>
  <rect width="1200" height="760" fill="url(#grid)"/>
  <path d="M600 0V760" stroke="#d7b46a" stroke-opacity="0.28" stroke-width="5" stroke-dasharray="24 18"/>
  <path d="M0 380H1200" stroke="#d7b46a" stroke-opacity="0.2" stroke-width="3"/>
  <g opacity="0.82">
    <rect x="76" y="76" width="190" height="126" rx="4" fill="#0f1412" stroke="#d7b46a" stroke-opacity="0.55" stroke-width="4"/>
    <rect x="934" y="558" width="190" height="126" rx="4" fill="#0f1412" stroke="#d7b46a" stroke-opacity="0.55" stroke-width="4"/>
    <rect x="444" y="300" width="312" height="160" rx="4" fill="#202722" stroke="#7ec4b3" stroke-opacity="0.45" stroke-width="4"/>
    <rect x="176" y="478" width="160" height="84" rx="4" fill="#2c241b" stroke="#d7b46a" stroke-opacity="0.42" stroke-width="3"/>
    <rect x="864" y="198" width="160" height="84" rx="4" fill="#2c241b" stroke="#d7b46a" stroke-opacity="0.42" stroke-width="3"/>
  </g>
  <g fill="#7ec4b3" opacity="0.9" filter="url(#soft)">
    <circle cx="600" cy="380" r="32"/>
    <circle cx="274" cy="380" r="20"/>
    <circle cx="926" cy="380" r="20"/>
  </g>
  <g fill="none" stroke="#f4f1e8" stroke-opacity="0.34" stroke-width="3">
    <circle cx="600" cy="380" r="38"/>
    <circle cx="274" cy="380" r="26"/>
    <circle cx="926" cy="380" r="26"/>
  </g>
</svg>
